<?xml version="1.0" encoding="UTF-8"?>
<!-- Generator: visioncortex VTracer 0.6.3 -->
<svg version="1.1" xmlns="http://www.w3.org/2000/svg" width="1280" height="1280">
<path d="M0 0 C1.36 -0 2.72 -0 4.08 -0 C6.91 -0 9.74 -0 12.58 0 C16.13 0.01 19.69 0 23.25 -0 C39.29 -0.02 55.29 0.2 71.31 1.13 C71.31 1.79 71.31 2.45 71.31 3.13 C72.2 3.1 73.08 3.06 74 3.03 C82.69 2.84 91.06 3.43 99.68 4.57 C100.7 4.7 101.72 4.84 102.76 4.98 C110.02 5.99 110.02 5.99 112.31 7.13 C114.68 7.36 117.06 7.54 119.43 7.7 C120.71 7.78 122 7.86 123.32 7.95 C124.8 8.04 124.8 8.04 126.31 8.13 C126.31 8.79 126.31 9.45 126.31 10.13 C127.5 10.09 128.7 10.05 129.93 10.01 C133.79 10 136.64 10.91 140.31 12.13 C143.97 12.59 147.63 12.88 151.31 13.13 C151.31 13.79 151.31 14.45 151.31 15.13 C152.15 15.09 153 15.05 153.87 15.01 C157.65 15.15 160.69 16.05 164.31 17.13 C166.64 17.5 168.97 17.85 171.31 18.13 C171.31 18.79 171.31 19.45 171.31 20.13 C172.61 20.24 173.91 20.34 175.25 20.45 C179.34 20.9 182.93 21.86 186.8 23.25 C189.76 24.29 192.74 25.21 195.75 26.13 C196.85 26.47 197.96 26.81 199.11 27.16 C201.07 27.76 203.04 28.34 205.01 28.91 C210.11 30.39 214.98 32.15 219.89 34.17 C222.08 35.04 224.26 35.8 226.5 36.51 C236.41 39.73 246.04 43.98 255.62 48.05 C258.49 49.2 261.38 50.19 264.31 51.13 C264.31 51.79 264.31 52.45 264.31 53.13 C265.01 53.26 265.71 53.38 266.43 53.51 C269.49 54.17 272.36 55.1 275.31 56.13 C275.31 56.79 275.31 57.45 275.31 58.13 C276.48 58.46 277.66 58.79 278.87 59.13 C285.51 61.32 291.47 64.84 297.57 68.19 C300.12 69.57 302.72 70.85 305.31 72.13 C311.68 75.5 317.91 79.03 324.02 82.84 C326.32 84.22 326.32 84.22 329.04 85.18 C331.31 86.13 331.31 86.13 332.31 88.13 C333.92 89.1 335.54 90.05 337.19 90.96 C341.1 93.13 344.92 95.45 348.75 97.76 C349.99 98.49 349.99 98.49 351.25 99.24 C352.03 99.71 352.81 100.19 353.62 100.67 C354.33 101.1 355.04 101.52 355.77 101.96 C356.28 102.35 356.78 102.73 357.31 103.13 C357.31 103.79 357.31 104.45 357.31 105.13 C357.88 105.41 358.45 105.69 359.04 105.98 C361.27 107.12 363.42 108.33 365.56 109.63 C366.26 110.06 366.97 110.48 367.7 110.91 C368.23 111.32 368.76 111.72 369.31 112.13 C369.31 112.79 369.31 113.45 369.31 114.13 C370.17 114.32 370.17 114.32 371.06 114.51 C376.1 115.91 378.67 118.41 382.31 122.13 C383.46 123.19 384.63 124.23 385.81 125.26 C386.36 125.73 386.9 126.21 387.46 126.7 C389.34 128.22 389.34 128.22 391.73 129.54 C394.52 131.26 396.73 133.21 399.12 135.45 C403.96 139.88 409 143.79 414.35 147.58 C416.3 149.13 417.71 150.69 419.25 152.63 C421.71 155.58 424 157.16 427.31 159.13 C429.34 161.06 431.29 163.05 433.24 165.07 C435.18 167.01 437.19 168.76 439.31 170.51 C440.79 171.81 440.79 171.81 442.31 173.13 C442.31 173.79 442.31 174.45 442.31 175.13 C443.3 175.46 444.29 175.79 445.31 176.13 C445.31 176.79 445.31 177.45 445.31 178.13 C445.97 178.13 446.63 178.13 447.31 178.13 C447.31 178.79 447.31 179.45 447.31 180.13 C447.97 180.13 448.63 180.13 449.31 180.13 C450.86 181.71 450.86 181.71 452.62 183.82 C454.72 186.3 456.79 188.61 459.12 190.88 C461.17 192.99 462.02 194.56 463.31 197.13 C465.65 199.62 468.11 201.94 470.6 204.28 C471.41 205.05 472.22 205.83 473.06 206.63 C474.23 207.73 474.23 207.73 475.42 208.85 C477.31 211.13 477.31 211.13 477.82 213.79 C477.98 214.56 478.14 215.34 478.31 216.13 C480.12 217.2 480.12 217.2 482.31 218.13 C483.95 219.72 485.53 221.37 487.06 223.07 C487.86 223.95 488.66 224.82 489.48 225.72 C491.31 228.13 491.31 228.13 491.31 231.13 C491.97 231.13 492.63 231.13 493.31 231.13 C494.6 232.56 494.6 232.56 495.93 234.45 C496.38 235.06 496.83 235.68 497.29 236.31 C498.31 238.13 498.31 238.13 498.31 241.13 C498.89 241.36 499.46 241.59 500.06 241.82 C502.93 243.49 504.45 245.41 506.31 248.13 C506.31 249.12 506.31 250.11 506.31 251.13 C507.3 251.46 508.29 251.79 509.31 252.13 C510.91 254.13 510.91 254.13 512.5 256.57 C513.03 257.37 513.56 258.18 514.1 259 C515.31 261.13 515.31 261.13 515.31 263.13 C515.97 263.13 516.63 263.13 517.31 263.13 C518.82 265.21 518.82 265.21 520.43 267.95 C520.97 268.84 521.51 269.73 522.07 270.65 C523.31 273.13 523.31 273.13 523.31 276.13 C523.97 276.13 524.63 276.13 525.31 276.13 C525.58 276.9 525.84 277.66 526.12 278.45 C527.07 281.07 527.07 281.07 528.62 282.36 C531.1 284.96 532.74 288.03 534.5 291.13 C534.86 291.76 535.23 292.39 535.61 293.04 C538.31 297.76 538.31 297.76 538.31 301.13 C538.97 301.13 539.63 301.13 540.31 301.13 C540.58 301.9 540.84 302.66 541.12 303.45 C542.1 306.1 542.1 306.1 543.77 307.58 C545.39 309.22 546.2 310.62 547.18 312.7 C547.52 313.4 547.86 314.11 548.21 314.83 C548.57 315.59 548.94 316.35 549.31 317.13 C550.12 318.76 550.93 320.38 551.75 322.01 C556.81 332.13 556.81 332.13 558.05 334.63 C558.9 336.31 559.74 337.99 560.59 339.67 C568.95 356.19 568.95 356.19 568.31 361.13 C569.3 361.46 570.29 361.79 571.31 362.13 C573.01 365.45 573.31 367.32 573.31 371.13 C573.97 371.13 574.63 371.13 575.31 371.13 C575.58 372.37 575.84 373.61 576.12 374.88 C576.76 377.47 577.2 378.98 578.81 381.13 C580.64 383.58 581.06 385.97 581.71 388.92 C582.37 391.35 583.3 393.48 584.37 395.76 C586 399.26 586.67 402.32 587.31 406.13 C587.94 407.65 588.61 409.15 589.31 410.63 C590.96 414.19 591.68 417.26 592.31 421.13 C592.97 422.77 593.66 424.39 594.37 426.01 C596.33 430.67 596.68 434.12 596.31 439.13 C596.97 439.13 597.63 439.13 598.31 439.13 C598.31 441.44 598.31 443.75 598.31 446.13 C598.97 446.13 599.63 446.13 600.31 446.13 C600.36 446.75 600.41 447.36 600.46 448 C600.53 448.8 600.61 449.61 600.68 450.45 C600.75 451.25 600.82 452.05 600.89 452.87 C601.2 455.41 601.2 455.41 603.31 458.13 C603.57 460.83 603.4 463.42 603.31 466.13 C603.97 466.13 604.63 466.13 605.31 466.13 C605.44 467.06 605.57 467.99 605.71 468.94 C605.89 470.14 606.06 471.34 606.25 472.57 C606.51 474.36 606.51 474.36 606.77 476.19 C607 479.01 607 479.01 608.31 480.13 C608.38 481.99 608.39 483.84 608.37 485.7 C608.36 486.71 608.35 487.72 608.34 488.76 C608.33 489.54 608.32 490.33 608.31 491.13 C608.97 491.13 609.63 491.13 610.31 491.13 C610.84 494.98 611.32 498.56 611.25 502.45 C611.07 505.36 611.07 505.36 613.31 508.13 C613.58 510.5 613.76 512.88 613.87 515.26 C613.7 519.52 613.7 519.52 615.31 523.13 C615.52 524.8 615.68 526.48 615.81 528.16 C615.93 529.69 615.93 529.69 616.06 531.25 C616.18 532.86 616.18 532.86 616.31 534.51 C616.47 536.62 616.64 538.73 616.81 540.84 C616.88 541.79 616.95 542.73 617.03 543.7 C617.24 546.27 617.24 546.27 618.31 549.13 C618.4 550.54 618.44 551.95 618.44 553.36 C618.45 554.23 618.45 555.09 618.46 555.98 C618.45 557.39 618.45 557.39 618.45 558.83 C618.46 560.33 618.46 560.33 618.46 561.85 C618.47 565.15 618.48 568.45 618.48 571.75 C618.48 574.04 618.48 576.33 618.49 578.62 C618.49 583.42 618.49 588.23 618.49 593.04 C618.49 599.19 618.51 605.35 618.52 611.51 C618.54 616.24 618.54 620.97 618.54 625.71 C618.54 627.98 618.54 630.25 618.55 632.51 C618.56 635.69 618.56 638.87 618.55 642.04 C618.56 642.98 618.56 643.92 618.57 644.88 C618.55 649.73 618.12 653.56 616.31 658.13 C615.97 660.71 615.97 660.71 615.93 663.28 C615.9 664.2 615.86 665.12 615.83 666.08 C615.79 667.5 615.79 667.5 615.75 668.95 C615.69 670.85 615.62 672.75 615.55 674.65 C615.53 675.49 615.51 676.33 615.48 677.19 C615.31 679.13 615.31 679.13 614.31 680.13 C614.07 683.31 613.91 686.49 613.79 689.67 C613.52 694.92 613.52 694.92 611.31 697.13 C611.17 700.2 611.31 703.22 611.43 706.29 C611.31 709.13 611.31 709.13 609.31 712.13 C608.85 714.87 608.85 714.87 608.68 717.82 C608.57 719.31 608.57 719.31 608.46 720.83 C608.41 721.59 608.36 722.35 608.31 723.13 C607.65 723.13 606.99 723.13 606.31 723.13 C606.34 724.15 606.34 724.15 606.38 725.18 C606.41 726.52 606.41 726.52 606.43 727.88 C606.46 728.76 606.48 729.65 606.5 730.55 C606.3 733.29 605.58 734.74 604.31 737.13 C603.94 739.19 603.94 739.19 603.81 741.26 C603.31 745.13 603.31 745.13 601.31 747.13 C601.31 748.27 601.31 749.4 601.31 750.57 C601.31 754.13 601.31 754.13 599.31 757.13 C598.96 759.46 598.63 761.8 598.31 764.13 C597.68 765.82 597.02 767.49 596.31 769.13 C596.16 769.79 596.02 770.45 595.87 771.13 C595.31 773.13 595.31 773.13 593.68 775.7 C593.23 776.5 592.78 777.3 592.31 778.13 C592.64 779.12 592.97 780.11 593.31 781.13 C592.65 781.13 591.99 781.13 591.31 781.13 C591.39 782 591.47 782.87 591.56 783.76 C591.25 787.89 589.63 789.77 587.31 793.13 C587.64 794.12 587.97 795.11 588.31 796.13 C587.65 796.13 586.99 796.13 586.31 796.13 C586.39 797 586.47 797.87 586.56 798.76 C586.25 802.91 584.68 804.79 582.31 808.13 C582.31 809.12 582.31 810.11 582.31 811.13 C581.7 815.52 580.11 819.13 578.31 823.13 C577.65 823.13 576.99 823.13 576.31 823.13 C576.33 824.08 576.35 825.03 576.37 826.01 C576.31 829.13 576.31 829.13 575.31 831.13 C574.65 831.13 573.99 831.13 573.31 831.13 C573.12 832.22 573.12 832.22 572.93 833.32 C572.31 836.11 571.4 838.49 570.31 841.13 C569.97 841.99 569.63 842.85 569.27 843.74 C568.93 844.59 568.6 845.44 568.25 846.32 C567.9 847.18 567.56 848.04 567.21 848.93 C566.31 851.13 566.31 851.13 565.31 853.13 C564.65 853.13 563.99 853.13 563.31 853.13 C563.31 854.78 563.31 856.43 563.31 858.13 C562.65 858.13 561.99 858.13 561.31 858.13 C560.98 859.78 560.65 861.43 560.31 863.13 C559.65 863.13 558.99 863.13 558.31 863.13 C558.12 864.22 558.12 864.22 557.93 865.32 C557.32 868.09 556.42 870.53 555.31 873.13 C554.65 873.13 553.99 873.13 553.31 873.13 C553.12 874.22 553.12 874.22 552.93 875.32 C552.32 878.09 551.42 880.53 550.31 883.13 C549.65 883.13 548.99 883.13 548.31 883.13 C548.21 883.83 548.1 884.54 548 885.26 C546.8 890.24 544.39 894.11 541.31 898.13 C540.23 900.21 539.22 902.31 538.23 904.43 C535.8 909.52 533.14 914.01 529.64 918.44 C527.95 920.58 526.5 922.74 525.31 925.2 C524.31 927.13 524.31 927.13 522.31 929.13 C521.61 930.45 520.94 931.78 520.31 933.13 C519.65 933.13 518.99 933.13 518.31 933.13 C517.98 934.45 517.65 935.77 517.31 937.13 C516.65 936.47 515.99 935.81 515.31 935.13 C514.98 936.12 514.65 937.11 514.31 938.13 C515.3 938.63 515.3 938.63 516.31 939.13 C515.98 940.12 515.65 941.11 515.31 942.13 C514.65 942.13 513.99 942.13 513.31 942.13 C513.08 942.83 512.85 943.54 512.62 944.26 C511.33 947.08 509.78 949.12 507.74 951.44 C505.54 954.04 503.61 956.82 501.64 959.59 C501.2 960.1 500.76 960.61 500.31 961.13 C499.65 961.13 498.99 961.13 498.31 961.13 C498.25 962.15 498.25 962.15 498.18 963.2 C497.11 966.8 495.32 968.68 492.78 971.39 C491.25 973.2 490.29 974.97 489.31 977.13 C488.65 977.13 487.99 977.13 487.31 977.13 C486.65 978.45 485.99 979.77 485.31 981.13 C483.31 980.13 483.31 980.13 482.31 979.13 C481.32 980.45 480.33 981.77 479.31 983.13 C480.3 983.63 480.3 983.63 481.31 984.13 C480.85 984.71 480.4 985.29 479.93 985.88 C478.3 988 478.3 988 477.42 990.05 C476.17 992.39 474.77 993.87 472.87 995.7 C472.2 996.35 471.54 997 470.85 997.67 C470.16 998.34 469.46 999.01 468.75 999.7 C467.37 1001.03 465.99 1002.36 464.62 1003.7 C463.7 1004.58 463.7 1004.58 462.77 1005.48 C461.08 1007.18 461.08 1007.18 460.31 1010.13 C458.99 1009.47 457.67 1008.81 456.31 1008.13 C455.98 1009.45 455.65 1010.77 455.31 1012.13 C456.3 1012.63 456.3 1012.63 457.31 1013.13 C456.65 1013.79 455.99 1014.44 455.3 1015.12 C452.86 1017.55 450.41 1019.99 447.96 1022.42 C446.9 1023.48 445.84 1024.53 444.78 1025.58 C443.26 1027.09 441.74 1028.61 440.22 1030.12 C438.84 1031.49 438.84 1031.49 437.44 1032.89 C435.28 1034.94 435.28 1034.94 434.31 1037.13 C433.65 1037.13 432.99 1037.13 432.31 1037.13 C432.31 1037.79 432.31 1038.45 432.31 1039.13 C430.91 1040.09 429.5 1041.04 428.07 1041.95 C421.34 1046.47 415.82 1052.58 410.29 1058.45 C409.71 1059.05 409.12 1059.66 408.52 1060.28 C407.99 1060.83 407.47 1061.38 406.94 1061.94 C405.31 1063.13 405.31 1063.13 401.31 1063.13 C401.06 1063.73 400.81 1064.32 400.55 1064.94 C399.14 1067.44 397.75 1068.59 395.43 1070.26 C394.76 1070.76 394.08 1071.25 393.38 1071.77 C391.41 1073.07 389.44 1074.13 387.31 1075.13 C386.32 1074.47 385.33 1073.81 384.31 1073.13 C384.97 1074.45 385.63 1075.77 386.31 1077.13 C385 1078.63 385 1078.63 383.31 1080.13 C382.32 1080.13 381.33 1080.13 380.31 1080.13 C378.95 1081.78 377.62 1083.45 376.31 1085.13 C375.65 1085.13 374.99 1085.13 374.31 1085.13 C374.31 1084.47 374.31 1083.81 374.31 1083.13 C373.32 1083.13 372.33 1083.13 371.31 1083.13 C371.31 1084.12 371.31 1085.11 371.31 1086.13 C371.97 1086.46 372.63 1086.79 373.31 1087.13 C372.61 1087.52 371.91 1087.92 371.18 1088.32 C368.94 1089.74 367.15 1091.09 365.18 1092.82 C362.31 1095.13 362.31 1095.13 359.31 1095.13 C358.97 1096.02 358.97 1096.02 358.62 1096.93 C356.95 1099.74 355.18 1100.75 352.37 1102.38 C351.5 1102.9 350.62 1103.42 349.72 1103.96 C347.31 1105.13 347.31 1105.13 344.31 1105.13 C343.98 1106.12 343.65 1107.11 343.31 1108.13 C340.31 1110.13 340.31 1110.13 336.31 1110.13 C336.31 1110.79 336.31 1111.45 336.31 1112.13 C335.19 1112.5 335.19 1112.5 334.06 1112.88 C331.26 1113.95 331.26 1113.95 329.5 1116.01 C325.83 1119.56 321.23 1121.41 316.5 1123.2 C314.28 1123.97 314.28 1123.97 312.96 1125.54 C311.03 1127.4 309.16 1128.35 306.75 1129.51 C305.86 1129.94 304.97 1130.37 304.05 1130.81 C303.15 1131.25 302.24 1131.68 301.31 1132.13 C299.64 1132.96 297.97 1133.8 296.31 1134.63 C286.06 1139.76 286.06 1139.76 283.57 1141 C281.67 1141.95 279.8 1142.94 277.93 1143.95 C275.31 1145.13 275.31 1145.13 271.31 1145.13 C271.31 1145.79 271.31 1146.45 271.31 1147.13 C267.37 1149.19 263.54 1150.78 259.31 1152.13 C256.64 1153.11 254.39 1154.08 252 1155.63 C247.18 1158.32 241.7 1159.12 236.31 1160.13 C236.31 1160.79 236.31 1161.45 236.31 1162.13 C233.67 1162.46 231.03 1162.79 228.31 1163.13 C228.31 1163.79 228.31 1164.45 228.31 1165.13 C227.3 1165.42 226.29 1165.71 225.25 1166.01 C224.6 1166.19 223.96 1166.38 223.3 1166.57 C221.49 1167.08 219.68 1167.58 217.87 1168.07 C214.6 1169.05 211.46 1170.19 208.28 1171.41 C205.34 1172.49 202.32 1173.27 199.31 1174.13 C198.04 1174.65 196.76 1175.17 195.5 1175.7 C190.87 1177.49 186.23 1177.84 181.31 1178.13 C181.31 1178.79 181.31 1179.45 181.31 1180.13 C179 1180.13 176.69 1180.13 174.31 1180.13 C174.31 1180.79 174.31 1181.45 174.31 1182.13 C173.69 1182.18 173.08 1182.23 172.45 1182.28 C171.64 1182.36 170.83 1182.43 170 1182.51 C169.2 1182.58 168.4 1182.65 167.57 1182.72 C165.04 1183.03 165.04 1183.03 162.31 1185.13 C160.27 1185.33 160.27 1185.33 158.12 1185.26 C156.86 1185.22 155.6 1185.18 154.31 1185.13 C154.31 1185.79 154.31 1186.45 154.31 1187.13 C153.55 1187.18 152.79 1187.23 152.01 1187.28 C151.01 1187.36 150.02 1187.43 149 1187.51 C147.52 1187.61 147.52 1187.61 146.01 1187.72 C143.09 1187.97 143.09 1187.97 140.31 1190.13 C137.61 1190.33 137.61 1190.33 134.62 1190.26 C133.63 1190.24 132.63 1190.22 131.61 1190.2 C130.47 1190.17 130.47 1190.17 129.31 1190.13 C129.31 1190.79 129.31 1191.45 129.31 1192.13 C125.35 1193.32 121.74 1193.13 117.65 1192.97 C115.03 1192.96 115.03 1192.96 112.31 1195.13 C109.96 1195.4 107.6 1195.58 105.25 1195.7 C100.61 1195.77 100.61 1195.77 96.31 1197.13 C94.77 1197.26 93.23 1197.33 91.7 1197.38 C90.78 1197.41 89.86 1197.44 88.91 1197.48 C86.98 1197.54 85.05 1197.6 83.12 1197.65 C81.73 1197.7 81.73 1197.7 80.32 1197.75 C79.06 1197.79 79.06 1197.79 77.77 1197.83 C75.3 1198 75.3 1198 73.27 1199.14 C68.99 1200.58 64.94 1200.41 60.46 1200.39 C59.47 1200.4 58.48 1200.4 57.46 1200.4 C54.2 1200.41 50.94 1200.41 47.68 1200.4 C45.42 1200.4 43.15 1200.4 40.88 1200.4 C36.13 1200.41 31.38 1200.4 26.63 1200.39 C20.54 1200.38 14.45 1200.39 8.36 1200.4 C3.68 1200.41 -1.01 1200.41 -5.69 1200.4 C-7.93 1200.4 -10.18 1200.4 -12.43 1200.41 C-15.56 1200.41 -18.7 1200.4 -21.84 1200.39 C-22.77 1200.4 -23.7 1200.4 -24.65 1200.4 C-29.15 1200.37 -32.58 1200.16 -36.69 1198.13 C-39.16 1197.79 -39.16 1197.79 -41.7 1197.75 C-43.09 1197.7 -43.09 1197.7 -44.5 1197.65 C-45.92 1197.61 -45.92 1197.61 -47.38 1197.57 C-49.28 1197.51 -51.18 1197.45 -53.08 1197.38 C-53.92 1197.35 -54.75 1197.33 -55.62 1197.31 C-57.69 1197.13 -57.69 1197.13 -59.69 1196.13 C-63.26 1195.85 -66.83 1195.69 -70.41 1195.51 C-73.69 1195.13 -73.69 1195.13 -76.69 1193.13 C-79.34 1192.93 -79.34 1192.93 -82.19 1193.07 C-85.47 1193.17 -87.55 1193.18 -90.69 1192.13 C-90.69 1191.47 -90.69 1190.81 -90.69 1190.13 C-91.45 1190.16 -92.21 1190.18 -92.99 1190.2 C-94.48 1190.23 -94.48 1190.23 -96 1190.26 C-96.99 1190.28 -97.98 1190.3 -98.99 1190.33 C-101.69 1190.13 -101.69 1190.13 -104.69 1188.13 C-107.43 1187.68 -107.43 1187.68 -110.38 1187.51 C-111.37 1187.43 -112.37 1187.36 -113.39 1187.28 C-114.15 1187.23 -114.91 1187.18 -115.69 1187.13 C-115.69 1186.47 -115.69 1185.81 -115.69 1185.13 C-117.68 1185.2 -119.66 1185.26 -121.65 1185.33 C-123.69 1185.13 -123.69 1185.13 -126.69 1183.13 C-127.68 1183.13 -128.67 1183.13 -129.69 1183.13 C-132.69 1183.13 -132.69 1183.13 -135.69 1181.13 C-138.02 1180.74 -140.35 1180.4 -142.69 1180.13 C-142.69 1179.47 -142.69 1178.81 -142.69 1178.13 C-143.32 1178.1 -143.95 1178.06 -144.6 1178.02 C-149.73 1177.63 -154.07 1176.86 -158.83 1174.89 C-160.93 1174 -160.93 1174 -164.19 1173.13 C-167.3 1172.25 -170.24 1171.15 -173.25 1169.99 C-177.57 1168.47 -182 1167.31 -186.42 1166.1 C-189.28 1165.25 -191.99 1164.4 -194.69 1163.13 C-195.02 1162.47 -195.35 1161.81 -195.69 1161.13 C-198.03 1160.37 -200.31 1159.72 -202.69 1159.13 C-203.43 1158.94 -204.17 1158.76 -204.93 1158.56 C-206.85 1158.08 -208.77 1157.6 -210.69 1157.13 C-210.69 1156.47 -210.69 1155.81 -210.69 1155.13 C-212.01 1155.13 -213.33 1155.13 -214.69 1155.13 C-214.69 1154.47 -214.69 1153.81 -214.69 1153.13 C-216.34 1153.13 -217.99 1153.13 -219.69 1153.13 C-220.02 1152.14 -220.35 1151.15 -220.69 1150.13 C-222.34 1150.13 -223.99 1150.13 -225.69 1150.13 C-225.69 1149.47 -225.69 1148.81 -225.69 1148.13 C-226.93 1148.03 -228.17 1147.93 -229.44 1147.82 C-233.09 1147.37 -234.85 1146.52 -237.69 1144.13 C-239.37 1143.4 -241.04 1142.68 -242.73 1141.98 C-245.99 1140.58 -249.15 1138.98 -252.32 1137.38 C-253.01 1137.04 -253.7 1136.69 -254.41 1136.33 C-262.64 1132.18 -270.79 1127.89 -278.69 1123.13 C-280.98 1121.82 -283.27 1120.5 -285.57 1119.2 C-289.12 1117.17 -289.12 1117.17 -290.89 1116.16 C-292.14 1115.45 -293.4 1114.75 -294.66 1114.06 C-299.59 1111.34 -299.59 1111.34 -300.69 1109.13 C-302.57 1108.01 -302.57 1108.01 -304.75 1107.01 C-305.49 1106.65 -306.22 1106.3 -306.98 1105.94 C-307.54 1105.67 -308.11 1105.41 -308.69 1105.13 C-308.69 1104.47 -308.69 1103.81 -308.69 1103.13 C-310.01 1102.8 -311.33 1102.47 -312.69 1102.13 C-312.69 1101.47 -312.69 1100.81 -312.69 1100.13 C-314.67 1099.8 -316.65 1099.47 -318.69 1099.13 C-318.69 1098.47 -318.69 1097.81 -318.69 1097.13 C-319.26 1096.85 -319.84 1096.58 -320.43 1096.29 C-322.66 1095.15 -324.8 1093.93 -326.94 1092.63 C-328 1092 -328 1092 -329.08 1091.35 C-329.61 1090.95 -330.14 1090.55 -330.69 1090.13 C-330.69 1089.47 -330.69 1088.81 -330.69 1088.13 C-331.31 1087.99 -331.93 1087.84 -332.57 1087.7 C-334.69 1087.13 -334.69 1087.13 -336.69 1086.13 C-336.69 1085.47 -336.69 1084.81 -336.69 1084.13 C-337.27 1083.86 -337.85 1083.59 -338.45 1083.31 C-340.69 1082.13 -342.56 1080.81 -344.57 1079.26 C-347.04 1077.37 -349.51 1075.56 -352.13 1073.88 C-354.69 1072.13 -354.69 1072.13 -355.69 1070.13 C-356.81 1069.48 -356.81 1069.48 -357.94 1068.82 C-361.03 1066.93 -363.28 1064.82 -365.69 1062.13 C-365.69 1061.47 -365.69 1060.81 -365.69 1060.13 C-366.8 1060.01 -366.8 1060.01 -367.93 1059.88 C-371.27 1058.98 -372.49 1057.71 -374.82 1055.2 C-377.08 1052.77 -378.91 1050.99 -381.69 1049.13 C-382.31 1048.33 -382.93 1047.52 -383.57 1046.7 C-385.82 1043.98 -387.68 1042.91 -390.69 1041.13 C-395.26 1037.42 -399.72 1033.48 -403.69 1029.13 C-403.69 1028.47 -403.69 1027.81 -403.69 1027.13 C-404.68 1026.8 -405.67 1026.47 -406.69 1026.13 C-406.69 1025.47 -406.69 1024.81 -406.69 1024.13 C-407.35 1024.13 -408.01 1024.13 -408.69 1024.13 C-410.17 1022.63 -410.17 1022.63 -411.88 1020.57 C-414.79 1017.13 -417.83 1013.96 -421.11 1010.87 C-422.69 1009.13 -422.69 1009.13 -423.98 1006.84 C-426.7 1002.55 -430.45 999.33 -434.13 995.86 C-434.7 995.31 -435.27 994.76 -435.86 994.19 C-436.38 993.7 -436.9 993.21 -437.43 992.7 C-438.89 990.88 -439.29 989.41 -439.69 987.13 C-440.35 987.13 -441.01 987.13 -441.69 987.13 C-443.17 985.52 -444.58 983.84 -445.94 982.13 C-446.74 981.14 -447.54 980.14 -448.37 979.11 C-450.81 975.98 -453.19 972.82 -455.5 969.59 C-456.65 967.98 -456.65 967.98 -458.69 967.13 C-458.96 966.37 -459.23 965.61 -459.5 964.82 C-460.96 961.52 -462.87 960.32 -465.69 958.13 C-467.4 955.45 -467.69 954.37 -467.69 951.13 C-468.68 950.8 -469.67 950.47 -470.69 950.13 C-472.69 947.13 -472.69 947.13 -472.69 944.13 C-473.68 943.8 -474.67 943.47 -475.69 943.13 C-476.38 941.07 -476.38 941.07 -476.69 939.13 C-477.35 939.13 -478.01 939.13 -478.69 939.13 C-479.65 937.38 -480.61 935.63 -481.57 933.88 C-482.1 932.91 -482.63 931.93 -483.18 930.93 C-484.4 928.68 -485.57 926.43 -486.69 924.13 C-487.35 924.13 -488.01 924.13 -488.69 924.13 C-488.95 923.6 -489.2 923.07 -489.46 922.52 C-491.53 918.51 -493.91 914.68 -496.23 910.81 C-497.69 908.13 -497.69 908.13 -497.69 906.13 C-498.35 905.8 -499.01 905.47 -499.69 905.13 C-501.03 903.01 -502.28 900.89 -503.5 898.7 C-503.86 898.06 -504.22 897.42 -504.59 896.76 C-507.46 891.63 -510.12 886.42 -512.69 881.13 C-513.79 878.92 -514.9 876.72 -516 874.51 C-516.59 873.33 -517.18 872.15 -517.78 870.94 C-519.13 868.24 -520.5 865.54 -521.88 862.86 C-522.25 862.14 -522.61 861.43 -522.99 860.69 C-523.69 859.31 -524.4 857.93 -525.11 856.55 C-526.87 853.1 -528.17 849.98 -528.69 846.13 C-529.35 846.13 -530.01 846.13 -530.69 846.13 C-530.96 845.29 -531.24 844.45 -531.52 843.58 C-532.74 840 -534.09 836.51 -535.5 833.01 C-535.77 832.35 -536.03 831.7 -536.3 831.03 C-537.95 826.95 -539.62 822.88 -541.32 818.82 C-542.11 816.92 -542.9 815.03 -543.69 813.13 C-544.05 812.27 -544.41 811.41 -544.79 810.52 C-546.73 805.78 -548.37 801.06 -549.79 796.13 C-550.72 793.04 -551.75 789.98 -552.79 786.92 C-555.23 779.75 -557.52 772.55 -559.57 765.26 C-559.78 764.5 -560 763.75 -560.22 762.97 C-561.17 759.53 -561.69 756.73 -561.69 753.13 C-562.35 752.8 -563.01 752.47 -563.69 752.13 C-563.95 750.21 -564.2 748.27 -564.35 746.34 C-564.61 744.08 -564.61 744.08 -565.63 741.89 C-567.03 738.24 -567.58 734.6 -568.19 730.76 C-568.85 726.68 -569.52 722.73 -570.69 718.76 C-572 714.03 -572.61 709.3 -573.25 704.45 C-573.5 702.59 -573.75 700.73 -574.01 698.87 C-574.17 697.65 -574.17 697.65 -574.33 696.4 C-574.67 694.27 -575.16 692.23 -575.69 690.13 C-577.95 677.77 -579.17 665.69 -578.69 653.13 C-579.35 653.13 -580.01 653.13 -580.69 653.13 C-581.76 637 -581.85 620.89 -581.82 604.73 C-581.82 601.1 -581.82 597.47 -581.83 593.84 C-581.83 590.98 -581.83 588.12 -581.83 585.26 C-581.82 583.29 -581.83 581.32 -581.83 579.34 C-581.8 567.88 -581.4 556.48 -579.69 545.13 C-579.58 543.8 -579.48 542.46 -579.41 541.12 C-579.35 540.11 -579.35 540.11 -579.3 539.07 C-579.23 537.69 -579.16 536.3 -579.09 534.92 C-578.88 531.22 -578.46 527.75 -577.69 524.13 C-577.3 521.37 -576.96 518.59 -576.63 515.82 C-576.54 515.08 -576.45 514.34 -576.35 513.58 C-576.13 511.76 -575.91 509.95 -575.69 508.13 C-575.03 508.13 -574.37 508.13 -573.69 508.13 C-574.19 506.65 -574.19 506.65 -574.69 505.13 C-574.61 502.79 -574.61 502.79 -574.32 500.2 C-574.23 499.34 -574.14 498.49 -574.04 497.61 C-573.73 495.38 -573.24 493.31 -572.69 491.13 C-572.32 488.89 -571.97 486.64 -571.63 484.38 C-571.45 483.21 -571.28 482.04 -571.09 480.84 C-570.96 479.94 -570.83 479.05 -570.69 478.13 C-570.03 478.13 -569.37 478.13 -568.69 478.13 C-568.69 475.16 -568.69 472.19 -568.69 469.13 C-568.03 469.13 -567.37 469.13 -566.69 469.13 C-567.19 467.65 -567.19 467.65 -567.69 466.13 C-567.35 463.65 -567.35 463.65 -566.75 460.95 C-566.46 459.59 -566.46 459.59 -566.16 458.21 C-566.01 457.53 -565.85 456.84 -565.69 456.13 C-565.03 456.13 -564.37 456.13 -563.69 456.13 C-563.69 453.82 -563.69 451.51 -563.69 449.13 C-563.03 449.13 -562.37 449.13 -561.69 449.13 C-562.02 448.14 -562.35 447.15 -562.69 446.13 C-562.07 444.12 -561.41 442.12 -560.69 440.13 C-560.69 439.47 -560.69 438.81 -560.69 438.13 C-560.03 438.13 -559.37 438.13 -558.69 438.13 C-558.69 435.82 -558.69 433.51 -558.69 431.13 C-558.03 431.13 -557.37 431.13 -556.69 431.13 C-557.02 430.14 -557.35 429.15 -557.69 428.13 C-557 426.15 -556.29 424.17 -555.51 422.22 C-554.35 419.25 -553.55 416.21 -552.69 413.13 C-549.01 400.61 -549.01 400.61 -547.07 396.32 C-545.96 393.76 -545.26 391.57 -544.63 388.88 C-543.69 385.13 -543.69 385.13 -541.69 382.13 C-541.06 380.02 -541.06 380.02 -540.69 378.13 C-540.03 378.13 -539.37 378.13 -538.69 378.13 C-538.73 377.37 -538.77 376.61 -538.82 375.82 C-538.69 373.13 -538.69 373.13 -536.69 370.13 C-536.06 368.02 -536.06 368.02 -535.69 366.13 C-535.03 366.13 -534.37 366.13 -533.69 366.13 C-533.69 364.48 -533.69 362.83 -533.69 361.13 C-533.03 361.13 -532.37 361.13 -531.69 361.13 C-531.36 359.48 -531.03 357.83 -530.69 356.13 C-530.03 356.13 -529.37 356.13 -528.69 356.13 C-528.69 355.47 -528.69 354.81 -528.69 354.13 C-529.35 353.8 -530.01 353.47 -530.69 353.13 C-530.03 353.13 -529.37 353.13 -528.69 353.13 C-528.36 352.14 -528.03 351.15 -527.69 350.13 C-528.02 349.8 -528.35 349.47 -528.69 349.13 C-528.03 348.47 -527.37 347.81 -526.69 347.13 C-526.05 345.06 -526.05 345.06 -525.69 343.13 C-525.03 343.13 -524.37 343.13 -523.69 343.13 C-523.57 342.41 -523.44 341.69 -523.32 340.95 C-522.7 338.18 -521.81 335.74 -520.69 333.13 C-520.03 333.13 -519.37 333.13 -518.69 333.13 C-518.59 332.41 -518.49 331.69 -518.38 330.95 C-517.62 327.86 -516.37 325.82 -514.69 323.13 C-514.02 321.47 -513.35 319.8 -512.69 318.13 C-510.48 313.27 -508.05 309.31 -504.69 305.13 C-504.34 303.8 -504 302.47 -503.69 301.13 C-502.25 299.38 -502.25 299.38 -500.69 298.13 C-500.03 298.13 -499.37 298.13 -498.69 298.13 C-498.73 297.39 -498.77 296.65 -498.82 295.88 C-498.69 293 -498.3 291.51 -496.69 289.13 C-495.7 288.8 -494.71 288.47 -493.69 288.13 C-493.59 287.37 -493.49 286.61 -493.38 285.82 C-492.61 282.83 -491.89 282.17 -489.69 280.13 C-488.05 277.63 -486.76 275.3 -485.69 272.51 C-484.65 270.03 -483.56 269 -481.69 267.13 C-481.23 265.93 -481.23 265.93 -480.75 264.7 C-479.53 261.75 -478.11 260.18 -475.69 258.13 C-475.03 258.13 -474.37 258.13 -473.69 258.13 C-473.59 257.37 -473.49 256.61 -473.38 255.82 C-472.61 252.81 -471.86 252.22 -469.69 250.13 C-469.24 249.16 -468.78 248.19 -468.32 247.2 C-466.53 243.82 -464.64 242.48 -461.69 240.13 C-461.01 238.47 -460.34 236.81 -459.69 235.13 C-458.02 233.47 -456.36 231.8 -454.69 230.13 C-454.26 229.2 -453.83 228.28 -453.38 227.32 C-450.83 222.51 -446.63 217.6 -441.69 215.13 C-441.45 214.42 -441.22 213.71 -440.97 212.98 C-438.88 208.34 -435.06 205.38 -431.39 201.95 C-428.13 198.82 -426.17 196.5 -424.69 192.13 C-423.29 190.37 -423.29 190.37 -421.75 188.88 C-421.25 188.38 -420.75 187.88 -420.23 187.37 C-418.69 186.13 -418.69 186.13 -415.69 185.13 C-414.99 183.82 -414.33 182.48 -413.69 181.13 C-411.39 178.42 -408.84 175.95 -406.32 173.45 C-405.64 172.76 -404.97 172.07 -404.28 171.36 C-403.62 170.7 -402.97 170.05 -402.29 169.37 C-401.7 168.77 -401.1 168.18 -400.49 167.56 C-398.69 166.13 -398.69 166.13 -396.81 165.76 C-393.5 164.78 -391.55 162.32 -389.23 159.89 C-388.71 159.37 -388.2 158.84 -387.67 158.3 C-386.02 156.63 -384.39 154.94 -382.75 153.26 C-381.12 151.58 -379.49 149.9 -377.85 148.23 C-376.84 147.2 -375.82 146.15 -374.81 145.11 C-371.99 142.22 -369.2 140.11 -365.69 138.13 C-364.17 136.67 -362.69 135.17 -361.25 133.63 C-357.91 130.2 -355.07 128.12 -350.69 126.13 C-349 124.49 -347.34 122.82 -345.69 121.13 C-344.04 120.11 -342.37 119.11 -340.69 118.13 C-339.7 117.31 -338.71 116.48 -337.69 115.63 C-335.1 113.48 -332.59 111.82 -329.69 110.13 C-329.03 109.47 -328.37 108.81 -327.69 108.13 C-326.37 108.13 -325.05 108.13 -323.69 108.13 C-323.29 107.24 -323.29 107.24 -322.88 106.32 C-321.67 104.09 -320.66 102.72 -318.69 101.13 C-317.37 100.77 -316.03 100.44 -314.69 100.13 C-314.03 99.47 -313.37 98.81 -312.69 98.13 C-311.37 98.13 -310.05 98.13 -308.69 98.13 C-308.49 97.53 -308.28 96.94 -308.07 96.32 C-306.18 93.32 -303.86 92.62 -300.69 91.13 C-300.16 90.58 -299.62 90.02 -299.07 89.45 C-297.69 88.13 -297.69 88.13 -293.69 88.13 C-293.42 87.49 -293.16 86.85 -292.88 86.2 C-291.69 84.13 -291.69 84.13 -288.69 83.13 C-279.98 79.53 -279.98 79.53 -273.69 73.13 C-271.73 72.35 -271.73 72.35 -269.32 71.63 C-266.27 70.72 -264.4 69.94 -261.69 68.13 C-260.7 68.13 -259.71 68.13 -258.69 68.13 C-258.69 67.47 -258.69 66.81 -258.69 66.13 C-255.37 64.71 -252.25 63.74 -248.69 63.13 C-248.69 62.47 -248.69 61.81 -248.69 61.13 C-245.37 59.71 -242.25 58.74 -238.69 58.13 C-238.69 57.47 -238.69 56.81 -238.69 56.13 C-232.07 53.13 -232.07 53.13 -228.69 53.13 C-228.36 52.47 -228.03 51.81 -227.69 51.13 C-227.69 51.79 -227.69 52.45 -227.69 53.13 C-227.03 53.13 -226.37 53.13 -225.69 53.13 C-225.69 52.47 -225.69 51.81 -225.69 51.13 C-224.04 50.8 -222.39 50.47 -220.69 50.13 C-220.69 49.47 -220.69 48.81 -220.69 48.13 C-219.04 48.13 -217.39 48.13 -215.69 48.13 C-215.69 47.47 -215.69 46.81 -215.69 46.13 C-213.71 45.4 -211.71 44.74 -209.69 44.13 C-209.03 44.46 -208.37 44.79 -207.69 45.13 C-207.69 44.47 -207.69 43.81 -207.69 43.13 C-206.58 42.72 -205.46 42.31 -204.32 41.88 C-201.05 40.66 -197.8 39.38 -194.57 38.07 C-190.98 36.63 -187.37 35.33 -183.69 34.13 C-182.54 33.68 -181.38 33.23 -180.19 32.76 C-175.23 30.87 -170.13 29.53 -165.02 28.11 C-162.42 27.35 -159.95 26.52 -157.44 25.51 C-153.69 24.13 -150.14 23.39 -146.23 22.67 C-139.47 21.43 -139.47 21.43 -133.69 18.13 C-132.18 17.9 -130.65 17.72 -129.13 17.57 C-127.89 17.44 -127.89 17.44 -126.62 17.32 C-125.99 17.26 -125.35 17.2 -124.69 17.13 C-124.69 16.8 -124.69 16.47 -124.69 16.13 C-123.09 15.77 -121.48 15.42 -119.88 15.07 C-118.99 14.87 -118.09 14.68 -117.17 14.47 C-114.69 14.13 -114.69 14.13 -111.69 15.13 C-111.69 14.47 -111.69 13.81 -111.69 13.13 C-111.03 13.08 -110.36 13.03 -109.68 12.98 C-104.92 12.58 -101.12 11.95 -96.69 10.13 C-94.32 9.8 -91.96 9.57 -89.58 9.38 C-87.68 9.33 -87.68 9.33 -86.69 8.13 C-84.89 7.87 -83.07 7.67 -81.25 7.51 C-80.27 7.41 -79.28 7.32 -78.26 7.22 C-75.69 7.13 -75.69 7.13 -73.69 8.13 C-73.69 7.47 -73.69 6.81 -73.69 6.13 C-72.05 5.93 -72.05 5.93 -70.37 5.73 C-68.91 5.55 -67.46 5.37 -66 5.2 C-65.28 5.11 -64.56 5.02 -63.82 4.93 C-59.54 4.4 -59.54 4.4 -55.3 3.6 C-50.21 2.69 -44.99 2.73 -39.82 2.53 C-38.95 2.49 -38.08 2.45 -37.18 2.41 C-36.39 2.38 -35.6 2.35 -34.79 2.32 C-32.5 2.2 -32.5 2.2 -29.69 1.13 C-19.82 0.13 -9.92 -0.02 0 0 Z M-484.69 271.13 C-483.69 273.13 -483.69 273.13 -483.69 273.13 Z M-512.69 319.13 C-511.69 321.13 -511.69 321.13 -511.69 321.13 Z M614.31 653.13 C614.64 654.12 614.97 655.11 615.31 656.13 C615.64 655.14 615.97 654.15 616.31 653.13 C615.65 653.13 614.99 653.13 614.31 653.13 Z M610.31 687.13 C610.31 689.44 610.31 691.75 610.31 694.13 C610.64 694.13 610.97 694.13 611.31 694.13 C611.31 691.82 611.31 689.51 611.31 687.13 C610.98 687.13 610.65 687.13 610.31 687.13 Z M608.31 697.13 C608.31 701.42 608.31 705.71 608.31 710.13 C608.64 710.13 608.97 710.13 609.31 710.13 C609.31 705.84 609.31 701.55 609.31 697.13 C608.98 697.13 608.65 697.13 608.31 697.13 Z M606.31 711.13 C606.31 714.43 606.31 717.73 606.31 721.13 C606.64 721.13 606.97 721.13 607.31 721.13 C607.31 717.83 607.31 714.53 607.31 711.13 C606.98 711.13 606.65 711.13 606.31 711.13 Z M603.31 723.13 C603.31 727.09 603.31 731.05 603.31 735.13 C603.64 735.13 603.97 735.13 604.31 735.13 C604.64 731.17 604.97 727.21 605.31 723.13 C604.65 723.13 603.99 723.13 603.31 723.13 Z M601.31 736.13 C601.31 738.77 601.31 741.41 601.31 744.13 C601.64 744.13 601.97 744.13 602.31 744.13 C602.31 741.49 602.31 738.85 602.31 736.13 C601.98 736.13 601.65 736.13 601.31 736.13 Z M596.31 756.13 C596.31 758.44 596.31 760.75 596.31 763.13 C596.64 763.13 596.97 763.13 597.31 763.13 C597.31 760.82 597.31 758.51 597.31 756.13 C596.98 756.13 596.65 756.13 596.31 756.13 Z M595.31 763.13 C596.31 765.13 596.31 765.13 596.31 765.13 Z M593.31 767.13 C593.31 768.78 593.31 770.43 593.31 772.13 C593.64 772.13 593.97 772.13 594.31 772.13 C594.31 770.48 594.31 768.83 594.31 767.13 C593.98 767.13 593.65 767.13 593.31 767.13 Z M578.31 813.13 C578.31 814.78 578.31 816.43 578.31 818.13 C578.64 818.13 578.97 818.13 579.31 818.13 C579.31 816.48 579.31 814.83 579.31 813.13 C578.98 813.13 578.65 813.13 578.31 813.13 Z M576.31 819.13 C577.31 821.13 577.31 821.13 577.31 821.13 Z M573.31 826.13 C574.31 829.13 574.31 829.13 574.31 829.13 Z M571.31 831.13 C572.31 834.13 572.31 834.13 572.31 834.13 Z M566.31 841.13 C566.31 842.78 566.31 844.43 566.31 846.13 C566.64 846.13 566.97 846.13 567.31 846.13 C567.31 844.48 567.31 842.83 567.31 841.13 C566.98 841.13 566.65 841.13 566.31 841.13 Z M543.31 889.13 C542.65 890.45 541.99 891.77 541.31 893.13 C542.3 892.8 543.29 892.47 544.31 892.13 C544.64 891.14 544.97 890.15 545.31 889.13 C544.65 889.13 543.99 889.13 543.31 889.13 Z M538.31 898.13 C539.31 900.13 539.31 900.13 539.31 900.13 Z M536.31 901.13 C537.31 903.13 537.31 903.13 537.31 903.13 Z M533.31 906.13 C533.31 906.79 533.31 907.45 533.31 908.13 C532.65 908.13 531.99 908.13 531.31 908.13 C531.64 909.12 531.97 910.11 532.31 911.13 C532.97 910.8 533.63 910.47 534.31 910.13 C534.96 908.11 534.96 908.11 535.31 906.13 C534.65 906.13 533.99 906.13 533.31 906.13 Z M397.31 1063.13 C397.31 1064.12 397.31 1065.11 397.31 1066.13 C397.97 1065.8 398.63 1065.47 399.31 1065.13 C399.31 1064.47 399.31 1063.81 399.31 1063.13 C398.65 1063.13 397.99 1063.13 397.31 1063.13 Z M393.31 1066.13 C393.31 1067.12 393.31 1068.11 393.31 1069.13 C393.97 1068.47 394.63 1067.81 395.31 1067.13 C394.65 1066.8 393.99 1066.47 393.31 1066.13 Z M352.31 1098.13 C352.64 1098.79 352.97 1099.45 353.31 1100.13 C353.64 1099.47 353.97 1098.81 354.31 1098.13 C353.65 1098.13 352.99 1098.13 352.31 1098.13 Z M324.31 1115.13 C324.64 1115.79 324.97 1116.45 325.31 1117.13 C325.64 1116.47 325.97 1115.81 326.31 1115.13 C325.65 1115.13 324.99 1115.13 324.31 1115.13 Z M307.31 1125.13 C307.64 1125.79 307.97 1126.45 308.31 1127.13 C308.64 1126.47 308.97 1125.81 309.31 1125.13 C308.65 1125.13 307.99 1125.13 307.31 1125.13 Z M267.31 1145.13 C267.64 1145.79 267.97 1146.45 268.31 1147.13 C268.64 1146.47 268.97 1145.81 269.31 1145.13 C268.65 1145.13 267.99 1145.13 267.31 1145.13 Z M259.31 1148.13 C259.31 1148.46 259.31 1148.79 259.31 1149.13 C260.96 1149.13 262.61 1149.13 264.31 1149.13 C264.31 1148.8 264.31 1148.47 264.31 1148.13 C262.66 1148.13 261.01 1148.13 259.31 1148.13 Z M243.31 1155.13 C247.31 1156.13 247.31 1156.13 247.31 1156.13 Z " fill="#F9D53E" transform="translate(620.69140625,38.8671875)"/>
<path d="M0 0 C8.09 8 15.61 16.41 22.75 25.27 C25.92 29.12 29.29 32.78 32.66 36.45 C37.41 41.62 41.95 46.92 46.38 52.38 C50.03 56.88 53.85 61.19 57.75 65.47 C60.06 68.07 62.26 70.73 64.44 73.44 C68.3 78.21 72.38 82.74 76.54 87.25 C78.93 89.92 81.19 92.65 83.44 95.44 C86.66 99.43 90.01 103.25 93.5 107 C97.79 111.61 101.8 116.38 105.75 121.29 C108.09 124.11 110.52 126.81 113 129.5 C116.27 133.06 119.41 136.67 122.44 140.44 C125.68 144.46 129.05 148.29 132.56 152.06 C136.59 156.39 140.33 160.86 143.98 165.51 C146.99 169.22 150.25 172.69 153.49 176.21 C156.73 179.81 159.75 183.55 162.79 187.32 C164.96 189.95 167.2 192.48 169.5 195 C172.6 198.4 175.55 201.86 178.44 205.44 C182.35 210.27 186.46 214.87 190.66 219.45 C195.39 224.6 199.91 229.88 204.31 235.31 C208.22 240.12 212.34 244.69 216.53 249.25 C219.73 252.81 222.71 256.53 225.72 260.25 C228.07 263.08 230.51 265.79 233 268.5 C236.29 272.08 239.45 275.72 242.5 279.5 C246.39 284.31 250.48 288.89 254.66 293.45 C260.3 299.6 265.58 305.96 270.78 312.49 C272.78 314.75 274.56 316.17 277.06 317.81 C279.77 319.92 279.98 320.86 280.43 324.37 C280.44 327.94 280.28 331.44 280 335 C280 336.94 280.02 338.88 280.07 340.81 C280.1 342.39 280.1 342.39 280.12 344 C280.15 345.05 280.17 346.1 280.2 347.19 C280 350 280 350 278 353 C277.54 355.74 277.54 355.74 277.38 358.69 C277.3 359.68 277.23 360.68 277.15 361.7 C277.1 362.46 277.05 363.22 277 364 C276.34 364 275.68 364 275 364 C275.02 364.68 275.05 365.35 275.07 366.05 C275.1 367.38 275.1 367.38 275.12 368.75 C275.15 369.63 275.17 370.51 275.2 371.42 C274.99 374.16 274.27 375.61 273 378 C272.63 380.06 272.63 380.06 272.5 382.12 C272 386 272 386 270 388 C270 389.13 270 390.27 270 391.44 C270 395 270 395 268 398 C267.65 400.33 267.32 402.67 267 405 C266.37 406.68 265.71 408.35 265 410 C264.86 410.66 264.71 411.32 264.56 412 C264 414 264 414 262.38 416.56 C261.69 417.77 261.69 417.77 261 419 C261.33 419.99 261.66 420.98 262 422 C261.34 422 260.68 422 260 422 C260.12 423.3 260.12 423.3 260.25 424.62 C259.94 428.76 258.32 430.64 256 434 C256.33 434.99 256.66 435.98 257 437 C256.34 437 255.68 437 255 437 C255.12 438.3 255.12 438.3 255.25 439.62 C254.94 443.77 253.38 445.66 251 449 C251 449.99 251 450.98 251 452 C250.39 456.38 248.81 460 247 464 C246.34 464 245.68 464 245 464 C245.02 464.95 245.04 465.9 245.06 466.88 C245 470 245 470 244 472 C243.34 472 242.68 472 242 472 C241.88 472.72 241.75 473.44 241.62 474.19 C241 476.98 240.09 479.36 239 482 C238.66 482.86 238.32 483.72 237.96 484.61 C237.63 485.46 237.29 486.31 236.94 487.19 C236.6 488.05 236.25 488.91 235.9 489.79 C235 492 235 492 234 494 C233.34 494 232.68 494 232 494 C232 495.65 232 497.3 232 499 C231.34 499 230.68 499 230 499 C229.67 500.65 229.34 502.3 229 504 C228.34 504 227.68 504 227 504 C226.88 504.72 226.75 505.44 226.62 506.19 C226.01 508.96 225.12 511.4 224 514 C223.34 514 222.68 514 222 514 C221.81 515.08 221.81 515.08 221.62 516.19 C221.01 518.96 220.12 521.4 219 524 C218.34 524 217.68 524 217 524 C216.85 525.05 216.85 525.05 216.69 526.12 C215.5 531.11 213.08 534.98 210 539 C208.92 541.07 207.92 543.18 206.92 545.3 C204.49 550.39 201.83 554.88 198.33 559.31 C196.64 561.45 195.19 563.61 194 566.06 C193 568 193 568 191 570 C190.3 571.32 189.63 572.65 189 574 C188.34 574 187.68 574 187 574 C186.67 575.32 186.34 576.64 186 578 C185.34 577.34 184.68 576.68 184 576 C183.67 576.99 183.34 577.98 183 579 C183.66 579.33 184.32 579.66 185 580 C184.67 580.99 184.34 581.98 184 583 C183.34 583 182.68 583 182 583 C181.77 583.7 181.55 584.4 181.31 585.12 C180.02 587.95 178.48 589.99 176.43 592.31 C174.23 594.9 172.3 597.69 170.33 600.46 C169.89 600.97 169.45 601.48 169 602 C168.34 602 167.68 602 167 602 C166.94 603.02 166.94 603.02 166.88 604.06 C165.8 607.67 164.01 609.55 161.47 612.25 C159.94 614.07 158.98 615.84 158 618 C157.34 618 156.68 618 156 618 C155.34 619.32 154.68 620.64 154 622 C152 621 152 621 151 620 C150.01 621.32 149.02 622.64 148 624 C148.66 624.33 149.32 624.66 150 625 C149.32 625.87 149.32 625.87 148.62 626.75 C146.99 628.87 146.99 628.87 146.11 630.92 C144.87 633.25 143.46 634.73 141.56 636.57 C140.89 637.22 140.23 637.87 139.54 638.54 C138.85 639.21 138.15 639.87 137.44 640.56 C136.06 641.89 134.68 643.23 133.31 644.57 C132.7 645.15 132.09 645.74 131.46 646.35 C129.77 648.05 129.77 648.05 129 651 C127.68 650.34 126.36 649.68 125 649 C124.67 650.32 124.34 651.64 124 653 C124.66 653.33 125.32 653.66 126 654 C125.34 654.66 124.68 655.31 124 655.99 C121.55 658.42 119.1 660.85 116.66 663.29 C115.6 664.34 114.54 665.4 113.47 666.45 C111.95 667.96 110.43 669.48 108.91 670.99 C107.99 671.9 107.08 672.81 106.13 673.75 C103.97 675.81 103.97 675.81 103 678 C102.34 678 101.68 678 101 678 C101 678.66 101 679.32 101 680 C99.6 680.96 98.19 681.91 96.76 682.82 C90.03 687.34 84.51 693.44 78.99 699.32 C78.4 699.92 77.81 700.53 77.21 701.15 C76.69 701.7 76.16 702.25 75.63 702.81 C74 704 74 704 70 704 C69.75 704.6 69.5 705.19 69.24 705.8 C67.83 708.3 66.44 709.45 64.12 711.12 C63.45 711.62 62.77 712.12 62.07 712.63 C60.1 713.93 58.13 715 56 716 C55.01 715.34 54.02 714.68 53 714 C53.66 715.32 54.32 716.64 55 718 C53.69 719.5 53.69 719.5 52 721 C51.01 721 50.02 721 49 721 C47.64 722.65 46.31 724.31 45 726 C44.34 726 43.68 726 43 726 C43 725.34 43 724.68 43 724 C42.01 724 41.02 724 40 724 C40 724.99 40 725.98 40 727 C40.66 727.33 41.32 727.66 42 728 C41.3 728.39 40.6 728.78 39.88 729.19 C37.63 730.6 35.85 731.95 33.88 733.69 C31 736 31 736 28 736 C27.77 736.59 27.54 737.19 27.31 737.8 C25.64 740.6 23.87 741.62 21.06 743.25 C19.75 744.03 19.75 744.03 18.41 744.83 C16 746 16 746 13 746 C12.67 746.99 12.34 747.98 12 749 C9 751 9 751 5 751 C5 751.66 5 752.32 5 753 C4.26 753.25 3.51 753.49 2.75 753.75 C-0.05 754.82 -0.05 754.82 -1.81 756.88 C-5.47 760.43 -10.08 762.27 -14.81 764.06 C-17.02 764.84 -17.02 764.84 -18.35 766.41 C-20.28 768.27 -22.15 769.22 -24.56 770.38 C-25.45 770.81 -26.34 771.24 -27.25 771.68 C-28.16 772.12 -29.07 772.55 -30 773 C-31.67 773.83 -33.33 774.66 -35 775.5 C-45.25 780.63 -45.25 780.63 -47.74 781.86 C-49.64 782.82 -51.51 783.81 -53.38 784.81 C-56 786 -56 786 -60 786 C-60 786.66 -60 787.32 -60 788 C-63.93 790.06 -67.77 791.65 -72 793 C-74.67 793.98 -76.92 794.95 -79.31 796.5 C-84.13 799.19 -89.61 799.99 -95 801 C-95 801.66 -95 802.32 -95 803 C-97.64 803.33 -100.28 803.66 -103 804 C-103 804.66 -103 805.32 -103 806 C-104.01 806.29 -105.02 806.58 -106.06 806.88 C-106.7 807.06 -107.35 807.24 -108.01 807.43 C-109.81 807.95 -111.63 808.44 -113.44 808.94 C-116.71 809.91 -119.84 811.05 -123.02 812.28 C-125.97 813.35 -128.98 814.16 -132 815 C-133.36 815.5 -133.36 815.5 -134.75 816.02 C-138.36 817.11 -141.62 817.41 -145.38 817.62 C-146.62 817.7 -147.87 817.77 -149.15 817.85 C-150.09 817.9 -151.03 817.95 -152 818 C-152.25 817.22 -152.5 816.43 -152.75 815.62 C-154.24 812.49 -154.94 812.41 -158 811 C-160.13 809.14 -162.2 807.26 -164.25 805.31 C-165.42 804.22 -166.59 803.12 -167.75 802.03 C-168.31 801.51 -168.88 800.98 -169.45 800.44 C-171.93 798.13 -174.48 795.92 -177.04 793.71 C-179.39 791.66 -181.69 789.58 -184 787.5 C-186.96 784.83 -189.93 782.18 -192.94 779.56 C-197.13 775.91 -201.23 772.16 -205.34 768.41 C-208.19 765.83 -211.08 763.29 -213.98 760.77 C-216.29 758.75 -218.55 756.69 -220.81 754.62 C-224.21 751.55 -227.68 748.62 -231.25 745.75 C-237.01 741.09 -242.38 736.07 -247.78 731.01 C-250.83 728.15 -253.94 725.38 -257.1 722.65 C-259.3 720.74 -261.46 718.77 -263.62 716.81 C-267.63 713.2 -271.7 709.68 -275.81 706.19 C-281.17 701.63 -286.38 696.95 -291.52 692.16 C-294.98 688.93 -298.49 685.78 -302.07 682.69 C-304.28 680.76 -306.45 678.79 -308.62 676.81 C-312.63 673.2 -316.7 669.68 -320.81 666.19 C-326.1 661.69 -331.23 657.05 -336.3 652.3 C-340.57 648.33 -345.04 644.66 -349.59 641.01 C-351.69 639.26 -353.6 637.47 -355.5 635.5 C-358.19 632.71 -361.04 630.3 -364.06 627.88 C-369.89 623.18 -375.32 618.12 -380.78 613.01 C-383.82 610.15 -386.94 607.38 -390.1 604.66 C-392.32 602.72 -394.5 600.73 -396.69 598.75 C-400.47 595.33 -404.34 592.02 -408.25 588.75 C-413.7 584.19 -418.93 579.42 -424.11 574.56 C-427.72 571.19 -431.36 567.88 -435.1 564.65 C-437.3 562.74 -439.46 560.77 -441.62 558.81 C-445.75 555.09 -449.95 551.47 -454.19 547.88 C-457.76 544.84 -461.27 541.84 -464.5 538.44 C-468.33 534.43 -472.79 531.16 -477.2 527.82 C-480 525.68 -482.03 523.95 -484 521 C-480.4 521.62 -478.3 523.09 -475.44 525.31 C-461.78 535.46 -447.02 544.04 -432 552 C-430.77 552.66 -430.77 552.66 -429.52 553.32 C-382.36 578.33 -329.49 592.21 -276.06 592.25 C-275.33 592.25 -274.6 592.25 -273.84 592.25 C-227.25 592.18 -182.29 581.62 -139 565 C-138.14 564.67 -137.29 564.35 -136.41 564.01 C-126.61 560.22 -117.23 555.77 -107.9 550.97 C-106.07 550.03 -104.23 549.12 -102.38 548.22 C-73.5 534.05 -44.78 515.77 -21 494 C-19.71 492.87 -18.42 491.75 -17.12 490.62 C-16.47 490.05 -15.82 489.48 -15.15 488.89 C-13.57 487.5 -11.98 486.11 -10.38 484.73 C-9.49 483.96 -8.6 483.18 -7.69 482.38 C-6.87 481.66 -6.05 480.95 -5.2 480.21 C-1.76 476.76 -0.16 474.08 0.56 469.25 C0.23 460.94 -7.53 454.01 -13 448.38 C-14.32 446.99 -15.65 445.6 -16.97 444.21 C-17.64 443.51 -18.3 442.82 -18.99 442.1 C-22.19 438.76 -25.34 435.38 -28.5 432 C-29.05 431.41 -29.6 430.83 -30.17 430.22 C-32.98 427.22 -35.73 424.18 -38.42 421.08 C-42.09 416.86 -45.9 412.8 -49.75 408.75 C-67.51 389.96 -67.51 389.96 -74.46 381.52 C-77.42 378.59 -80.27 377.7 -84.38 377.62 C-91.1 377.83 -94.62 381.64 -99.38 386 C-134.48 418.01 -183.84 442.94 -231 449 C-231.65 449.08 -232.31 449.17 -232.98 449.25 C-238.39 449.91 -243.74 450.19 -249.19 450.24 C-250.04 450.25 -250.89 450.26 -251.77 450.27 C-283.87 450.56 -313.32 447.06 -343 434 C-343.65 433.72 -344.31 433.44 -344.98 433.15 C-360.88 426.29 -375.88 417.34 -389 406 C-390.11 405.08 -391.21 404.15 -392.32 403.23 C-436.44 366.27 -460.53 315.83 -467 259 C-467.13 257.92 -467.26 256.84 -467.4 255.73 C-467.7 252.82 -467.88 249.93 -468 247 C-468.03 246.34 -468.05 245.69 -468.08 245.01 C-469.9 193.68 -452.56 139.41 -419 100 C-418.19 99.01 -417.38 98.02 -416.55 97 C-383.31 56.43 -335.88 30.71 -283.59 24.95 C-227.83 19.56 -171.08 37.99 -127 72 C-126.03 72.74 -125.05 73.48 -124.05 74.25 C-118.67 78.45 -113.62 82.99 -108.6 87.62 C-105.74 90.24 -102.84 92.79 -99.92 95.33 C-98.54 96.53 -97.17 97.74 -95.8 98.95 C-94.72 99.9 -94.72 99.9 -93.62 100.88 C-92.98 101.45 -92.33 102.02 -91.66 102.62 C-88.6 105.16 -86.04 105.35 -82.08 105.26 C-76.66 104.58 -73.67 100.76 -70.44 96.75 C-69.76 95.88 -69.09 95 -68.4 94.11 C-65.52 90.37 -62.54 86.72 -59.56 83.06 C-58.43 81.67 -57.29 80.27 -56.16 78.88 C-52.91 74.88 -49.64 70.89 -46.38 66.91 C-42.84 62.58 -39.33 58.25 -35.81 53.92 C-32.61 49.98 -29.4 46.05 -26.19 42.12 C-20.08 34.67 -14.09 27.13 -8.12 19.56 C-7.65 18.96 -7.17 18.36 -6.68 17.73 C-2.02 11.89 -2.02 11.89 -0.38 4.81 C-0.3 3.91 -0.23 3.01 -0.15 2.08 C-0.1 1.39 -0.05 0.71 0 0 Z M277 338 C277 342.29 277 346.58 277 351 C277.33 351 277.66 351 278 351 C278 346.71 278 342.42 278 338 C277.67 338 277.34 338 277 338 Z M275 352 C275 355.3 275 358.6 275 362 C275.33 362 275.66 362 276 362 C276 358.7 276 355.4 276 352 C275.67 352 275.34 352 275 352 Z M272 364 C272 367.96 272 371.92 272 376 C272.33 376 272.66 376 273 376 C273.33 372.04 273.66 368.08 274 364 C273.34 364 272.68 364 272 364 Z M270 377 C270 379.64 270 382.28 270 385 C270.33 385 270.66 385 271 385 C271 382.36 271 379.72 271 377 C270.67 377 270.34 377 270 377 Z M265 397 C265 399.31 265 401.62 265 404 C265.33 404 265.66 404 266 404 C266 401.69 266 399.38 266 397 C265.67 397 265.34 397 265 397 Z M264 404 C265 406 265 406 265 406 Z M262 408 C262 409.65 262 411.3 262 413 C262.33 413 262.66 413 263 413 C263 411.35 263 409.7 263 408 C262.67 408 262.34 408 262 408 Z M247 454 C247 455.65 247 457.3 247 459 C247.33 459 247.66 459 248 459 C248 457.35 248 455.7 248 454 C247.67 454 247.34 454 247 454 Z M245 460 C246 462 246 462 246 462 Z M242 467 C243 470 243 470 243 470 Z M240 472 C241 475 241 475 241 475 Z M235 482 C235 483.65 235 485.3 235 487 C235.33 487 235.66 487 236 487 C236 485.35 236 483.7 236 482 C235.67 482 235.34 482 235 482 Z M212 530 C211.34 531.32 210.68 532.64 210 534 C210.99 533.67 211.98 533.34 213 533 C213.33 532.01 213.66 531.02 214 530 C213.34 530 212.68 530 212 530 Z M207 539 C208 541 208 541 208 541 Z M205 542 C206 544 206 544 206 544 Z M202 547 C202 547.66 202 548.32 202 549 C201.34 549 200.68 549 200 549 C200.33 549.99 200.66 550.98 201 552 C201.66 551.67 202.32 551.34 203 551 C203.65 548.98 203.65 548.98 204 547 C203.34 547 202.68 547 202 547 Z M66 704 C66 704.99 66 705.98 66 707 C66.66 706.67 67.32 706.34 68 706 C68 705.34 68 704.68 68 704 C67.34 704 66.68 704 66 704 Z M62 707 C62 707.99 62 708.98 62 710 C62.66 709.34 63.32 708.68 64 708 C63.34 707.67 62.68 707.34 62 707 Z M21 739 C21.33 739.66 21.66 740.32 22 741 C22.33 740.34 22.66 739.68 23 739 C22.34 739 21.68 739 21 739 Z M-7 756 C-6.67 756.66 -6.34 757.32 -6 758 C-5.67 757.34 -5.34 756.68 -5 756 C-5.66 756 -6.32 756 -7 756 Z M-24 766 C-23.67 766.66 -23.34 767.32 -23 768 C-22.67 767.34 -22.34 766.68 -22 766 C-22.66 766 -23.32 766 -24 766 Z M-64 786 C-63.67 786.66 -63.34 787.32 -63 788 C-62.67 787.34 -62.34 786.68 -62 786 C-62.66 786 -63.32 786 -64 786 Z M-72 789 C-72 789.33 -72 789.66 -72 790 C-70.35 790 -68.7 790 -67 790 C-67 789.67 -67 789.34 -67 789 C-68.65 789 -70.3 789 -72 789 Z M-88 796 C-84 797 -84 797 -84 797 Z " fill="#DBAD0E" transform="translate(952,398)"/>
<path d="M0 0 C1.56 -0.01 1.56 -0.01 3.15 -0.02 C64.28 -0.34 122.76 9.97 178.1 36.89 C180.67 38.14 183.25 39.37 185.84 40.59 C206.36 50.42 225.7 62.41 243.79 76.2 C244.56 76.78 245.33 77.37 246.12 77.97 C254.59 84.38 262.84 90.88 270.59 98.16 C272.43 99.87 274.31 101.46 276.29 103.02 C280.33 106.55 281.98 109.44 282.54 114.77 C282.3 122.1 277.35 126.89 272.79 132.2 C271.98 133.17 271.18 134.14 270.35 135.14 C268.7 137.13 267.05 139.1 265.39 141.07 C262.63 144.37 259.99 147.75 257.35 151.14 C253.33 156.31 249.17 161.33 244.91 166.31 C241.6 170.2 238.42 174.17 235.29 178.2 C231.29 183.35 227.17 188.35 222.93 193.29 C220.49 196.13 218.14 199.02 215.86 201.99 C215.38 202.62 214.9 203.25 214.4 203.9 C213.48 205.1 212.57 206.32 211.67 207.54 C207.84 212.56 204.24 215.81 197.91 216.83 C190.24 216.39 184.99 209.5 179.98 204.34 C176.68 201.12 173.08 198.29 169.48 195.41 C167.14 193.49 164.94 191.51 162.73 189.45 C128.59 159.01 82.09 140.43 36.79 136.2 C35.66 136.09 34.54 135.98 33.38 135.87 C-3.57 132.6 -43.99 140.56 -76.21 159.2 C-76.94 159.62 -77.66 160.03 -78.41 160.46 C-93.9 169.41 -107.32 179.83 -120.21 192.2 C-121.04 192.99 -121.86 193.77 -122.71 194.58 C-131.34 202.96 -138.49 212.34 -145.21 222.27 C-146.73 224.5 -148.28 226.67 -149.9 228.83 C-169.66 256.41 -180.32 291.89 -184.21 325.2 C-184.34 326.29 -184.48 327.37 -184.61 328.49 C-184.91 331.4 -185.09 334.28 -185.21 337.2 C-185.24 337.86 -185.27 338.52 -185.29 339.19 C-186.59 375.75 -178.72 412.14 -163.21 445.2 C-162.66 446.39 -162.11 447.59 -161.54 448.81 C-157.18 457.82 -152.02 466.06 -146.21 474.2 C-145.82 474.76 -145.42 475.31 -145.01 475.89 C-114.33 518.43 -67.14 548.42 -15.36 557.15 C-12.98 557.53 -10.6 557.88 -8.21 558.2 C-6.37 558.46 -6.37 558.46 -4.49 558.73 C-0.04 559.28 4.37 559.4 8.84 559.44 C9.69 559.45 10.55 559.46 11.42 559.47 C36.64 559.7 60.77 558.66 84.79 550.2 C85.67 549.9 86.56 549.59 87.46 549.28 C124.02 536.51 158.42 517.68 186.7 490.98 C190.11 488.08 192.74 486.91 197.23 486.89 C197.97 486.87 198.71 486.86 199.47 486.84 C205.98 487.86 209.95 493.28 214.16 497.89 C214.8 498.57 215.43 499.26 216.09 499.96 C219.22 503.34 222.29 506.76 225.31 510.24 C228.79 514.24 232.4 518.1 236.04 521.95 C251.75 538.64 251.75 538.64 258.41 546.39 C260.92 549.29 263.56 552.01 266.29 554.7 C282.78 571.05 282.78 571.05 283.48 579.2 C282.7 589.01 271.73 596.23 264.79 602.2 C262.04 604.52 259.27 606.79 256.47 609.04 C254.74 610.44 253.02 611.86 251.32 613.3 C243.28 620.12 234.6 625.91 225.86 631.79 C223.49 633.41 221.17 635.08 218.85 636.77 C207.19 644.96 194.63 652.06 181.79 658.2 C180.04 659.1 178.29 660 176.54 660.9 C93.92 703.08 -2.41 716.75 -91.68 688.17 C-133.04 674.48 -173.59 654.16 -207.21 626.2 C-208.12 625.46 -209.04 624.72 -209.98 623.96 C-215.49 619.48 -220.93 614.94 -226.21 610.2 C-227.04 609.46 -227.88 608.72 -228.74 607.96 C-235.18 602.15 -241.38 596.14 -247.52 590.02 C-248.28 589.27 -249.03 588.52 -249.8 587.75 C-313.69 523.69 -345.31 433.29 -345.21 343.95 C-344.78 296.29 -332.27 249.61 -313.21 206.2 C-312.83 205.33 -312.45 204.47 -312.06 203.57 C-291.66 157.48 -258.66 111.72 -218.21 81.2 C-216.91 80.18 -215.6 79.16 -214.3 78.14 C-186.79 56.67 -155.83 38.69 -123.21 26.2 C-121.8 25.66 -121.8 25.66 -120.37 25.11 C-82.26 10.61 -40.99 0.19 0 0 Z " fill="#FBFDFD" transform="translate(670.2109375,287.796875)"/>
<path d="M0 0 C21.12 0 42.24 0 64 0 C64 0.33 64 0.66 64 1 C42.88 1 21.76 1 0 1 C0 0.67 0 0.34 0 0 Z " fill="#000000" transform="translate(608,1240)"/>
<path d="M0 0 C0.33 0 0.66 0 1 0 C1 21.12 1 42.24 1 64 C0.67 64 0.34 64 0 64 C0 42.88 0 21.76 0 0 Z " fill="#000000" transform="translate(1240,608)"/>
<path d="M0 0 C3.57 1.51 5.84 3.61 8.55 6.35 C9.39 7.2 10.24 8.05 11.11 8.93 C12.41 10.26 12.41 10.26 13.75 11.62 C14.64 12.52 15.53 13.42 16.44 14.34 C18.63 16.56 20.82 18.78 23 21 C22.67 21.66 22.34 22.32 22 23 C17.83 19.5 13.69 16.02 10 12 C10 11.34 10 10.68 10 10 C9.01 9.67 8.02 9.34 7 9 C7 8.34 7 7.68 7 7 C6.34 7 5.68 7 5 7 C2.38 4.62 2.38 4.62 0 2 C0 1.34 0 0.68 0 0 Z " fill="#FAD63F" transform="translate(207,1056)"/>
<path d="M0 0 C0.66 0.33 1.32 0.66 2 1 C-0.31 3.31 -2.62 5.62 -5 8 C-5 5 -5 5 -2.5 2.31 C-1.68 1.55 -0.85 0.79 0 0 Z " fill="#F1CB31" transform="translate(230,197)"/>
<path d="M0 0 C4.29 0 8.58 0 13 0 C13 0.33 13 0.66 13 1 C8.71 1 4.42 1 0 1 C0 0.67 0 0.34 0 0 Z " fill="#000000" transform="translate(696,1237)"/>
<path d="M0 0 C4.29 0 8.58 0 13 0 C13 0.33 13 0.66 13 1 C8.71 1 4.42 1 0 1 C0 0.67 0 0.34 0 0 Z " fill="#000000" transform="translate(571,1237)"/>
<path d="M0 0 C0.33 0 0.66 0 1 0 C1 3.3 1 6.6 1 10 C0.67 10 0.34 10 0 10 C0 6.7 0 3.4 0 0 Z " fill="#000000" transform="translate(1232,736)"/>
<path d="M0 0 C0.33 0 0.66 0 1 0 C1 2.97 1 5.94 1 9 C0.67 9 0.34 9 0 9 C0 6.03 0 3.06 0 0 Z " fill="#000000" transform="translate(1235,719)"/>
<path d="M0 0 C0.33 0 0.66 0 1 0 C1 2.97 1 5.94 1 9 C0.67 9 0.34 9 0 9 C0 6.03 0 3.06 0 0 Z " fill="#000000" transform="translate(1237,700)"/>
<path d="M0 0 C2.64 0 5.28 0 8 0 C8 0.33 8 0.66 8 1 C5.36 1 2.72 1 0 1 C0 0.67 0 0.34 0 0 Z " fill="#000000" transform="translate(736,1232)"/>
<path d="M0 0 C2.64 0 5.28 0 8 0 C8 0.33 8 0.66 8 1 C5.36 1 2.72 1 0 1 C0 0.67 0 0.34 0 0 Z " fill="#000000" transform="translate(536,1232)"/>
<path d="M0 0 C0.33 0 0.66 0 1 0 C1 2.31 1 4.62 1 7 C0.67 7 0.34 7 0 7 C0 4.69 0 2.38 0 0 Z " fill="#000000" transform="translate(1227,764)"/>
<path d="M0 0 C1.98 0 3.96 0 6 0 C6 0.33 6 0.66 6 1 C4.02 1 2.04 1 0 1 C0 0.67 0 0.34 0 0 Z " fill="#000000" transform="translate(764,1227)"/>
<path d="M0 0 C1.98 0 3.96 0 6 0 C6 0.33 6 0.66 6 1 C4.02 1 2.04 1 0 1 C0 0.67 0 0.34 0 0 Z " fill="#000000" transform="translate(804,1217)"/>
<path d="M0 0 C0.33 0 0.66 0 1 0 C1 1.98 1 3.96 1 6 C0.67 6 0.34 6 0 6 C0 4.02 0 2.04 0 0 Z " fill="#000000" transform="translate(1230,751)"/>
<path d="M0 0 C1.65 0 3.3 0 5 0 C5 0.33 5 0.66 5 1 C3.35 1 1.7 1 0 1 C0 0.67 0 0.34 0 0 Z " fill="#000000" transform="translate(719,1235)"/>
<path d="M0 0 C1.65 0 3.3 0 5 0 C5 0.33 5 0.66 5 1 C3.35 1 1.7 1 0 1 C0 0.67 0 0.34 0 0 Z " fill="#000000" transform="translate(556,1235)"/>
<path d="M0 0 C1.65 0 3.3 0 5 0 C5 0.33 5 0.66 5 1 C3.35 1 1.7 1 0 1 C0 0.67 0 0.34 0 0 Z " fill="#000000" transform="translate(511,1227)"/>
<path d="M0 0 C0.33 0 0.66 0 1 0 C1 1.65 1 3.3 1 5 C0.67 5 0.34 5 0 5 C0 3.35 0 1.7 0 0 Z " fill="#000000" transform="translate(1222,786)"/>
<path d="M0 0 C0.33 0 0.66 0 1 0 C1 1.65 1 3.3 1 5 C0.67 5 0.34 5 0 5 C0 3.35 0 1.7 0 0 Z " fill="#000000" transform="translate(1235,556)"/>
<path d="M0 0 C4 1 4 1 4 1 Z " fill="#000000" transform="translate(786,1222)"/>
<path d="M0 0 C4 1 4 1 4 1 Z " fill="#000000" transform="translate(490,1222)"/>
<path d="M0 0 C4 1 4 1 4 1 Z " fill="#000000" transform="translate(472,1217)"/>
<path d="M0 0 C1 4 1 4 1 4 Z " fill="#000000" transform="translate(1225,776)"/>
<path d="M0 0 C3 1 3 1 3 1 Z " fill="#000000" transform="translate(751,1230)"/>
<path d="M0 0 C3 1 3 1 3 1 Z " fill="#000000" transform="translate(526,1230)"/>
<path d="M0 0 C3 1 3 1 3 1 Z " fill="#000000" transform="translate(814,1215)"/>
<path d="M0 0 C3 1 3 1 3 1 Z " fill="#000000" transform="translate(829,1210)"/>
<path d="M0 0 C3 1 3 1 3 1 Z " fill="#000000" transform="translate(851,1202)"/>
<path d="M0 0 C3 1 3 1 3 1 Z " fill="#000000" transform="translate(864,1197)"/>
<path d="" fill="#000000" transform="translate(0,0)"/>
<path d="" fill="#000000" transform="translate(0,0)"/>
<path d="" fill="#000000" transform="translate(0,0)"/>
<path d="" fill="#000000" transform="translate(0,0)"/>
<path d="M0 0 C0.99 0.5 0.99 0.5 2 1 C1.01 1.5 1.01 1.5 0 2 C0 1.34 0 0.68 0 0 Z " fill="#EFC82E" transform="translate(232,195)"/>
<path d="M0 0 C2 1 2 1 2 1 Z " fill="#000000" transform="translate(502,1225)"/>
<path d="M0 0 C2 1 2 1 2 1 Z " fill="#000000" transform="translate(822,1212)"/>
<path d="M0 0 C2 1 2 1 2 1 Z " fill="#000000" transform="translate(837,1207)"/>
<path d="M0 0 C2 1 2 1 2 1 Z " fill="#000000" transform="translate(844,1205)"/>
<path d="M0 0 C2 1 2 1 2 1 Z " fill="#000000" transform="translate(881,1190)"/>
<path d="M0 0 C2 1 2 1 2 1 Z " fill="#000000" transform="translate(936,1162)"/>
<path d="M0 0 C2 1 2 1 2 1 Z " fill="#000000" transform="translate(991,1127)"/>
<path d="" fill="#000000" transform="translate(0,0)"/>
<path d="" fill="#000000" transform="translate(0,0)"/>
<path d="" fill="#000000" transform="translate(0,0)"/>
<path d="" fill="#000000" transform="translate(0,0)"/>
<path d="" fill="#000000" transform="translate(0,0)"/>
<path d="" fill="#000000" transform="translate(0,0)"/>
<path d="" fill="#000000" transform="translate(0,0)"/>
<path d="" fill="#000000" transform="translate(0,0)"/>
<path d="" fill="#000000" transform="translate(0,0)"/>
<path d="" fill="#000000" transform="translate(0,0)"/>
<path d="" fill="#000000" transform="translate(0,0)"/>
<path d="" fill="#000000" transform="translate(0,0)"/>
<path d="" fill="#000000" transform="translate(0,0)"/>
<path d="" fill="#000000" transform="translate(0,0)"/>
<path d="" fill="#000000" transform="translate(0,0)"/>
<path d="" fill="#000000" transform="translate(0,0)"/>
<path d="" fill="#000000" transform="translate(0,0)"/>
<path d="" fill="#000000" transform="translate(0,0)"/>
<path d="" fill="#000000" transform="translate(0,0)"/>
<path d="" fill="#000000" transform="translate(0,0)"/>
<path d="" fill="#000000" transform="translate(0,0)"/>
<path d="" fill="#000000" transform="translate(0,0)"/>
<path d="" fill="#000000" transform="translate(0,0)"/>
<path d="" fill="#000000" transform="translate(0,0)"/>
<path d="" fill="#000000" transform="translate(0,0)"/>
<path d="" fill="#000000" transform="translate(0,0)"/>
<path d="" fill="#000000" transform="translate(0,0)"/>
<path d="" fill="#000000" transform="translate(0,0)"/>
<path d="" fill="#000000" transform="translate(0,0)"/>
<path d="" fill="#000000" transform="translate(0,0)"/>
<path d="" fill="#000000" transform="translate(0,0)"/>
<path d="" fill="#000000" transform="translate(0,0)"/>
<path d="" fill="#000000" transform="translate(0,0)"/>
<path d="" fill="#000000" transform="translate(0,0)"/>
<path d="" fill="#FAD63F" transform="translate(0,0)"/>
<path d="" fill="#000000" transform="translate(0,0)"/>
<path d="" fill="#000000" transform="translate(0,0)"/>
<path d="" fill="#FAD63F" transform="translate(0,0)"/>
<path d="" fill="#000000" transform="translate(0,0)"/>
<path d="" fill="#000000" transform="translate(0,0)"/>
<path d="" fill="#000000" transform="translate(0,0)"/>
<path d="" fill="#FAD63F" transform="translate(0,0)"/>
<path d="" fill="#FAD63F" transform="translate(0,0)"/>
<path d="" fill="#000000" transform="translate(0,0)"/>
<path d="" fill="#000000" transform="translate(0,0)"/>
<path d="" fill="#000000" transform="translate(0,0)"/>
<path d="" fill="#FAD63F" transform="translate(0,0)"/>
<path d="" fill="#FAD63F" transform="translate(0,0)"/>
<path d="" fill="#DBAD0E" transform="translate(0,0)"/>
<path d="" fill="#000000" transform="translate(0,0)"/>
<path d="" fill="#000000" transform="translate(0,0)"/>
<path d="" fill="#000000" transform="translate(0,0)"/>
<path d="" fill="#FAD63F" transform="translate(0,0)"/>
<path d="" fill="#000000" transform="translate(0,0)"/>
<path d="" fill="#000000" transform="translate(0,0)"/>
<path d="" fill="#FAD63F" transform="translate(0,0)"/>
<path d="" fill="#FAD63F" transform="translate(0,0)"/>
<path d="" fill="#000000" transform="translate(0,0)"/>
<path d="" fill="#DBAD0E" transform="translate(0,0)"/>
<path d="" fill="#000000" transform="translate(0,0)"/>
<path d="" fill="#000000" transform="translate(0,0)"/>
<path d="" fill="#000000" transform="translate(0,0)"/>
<path d="" fill="#000000" transform="translate(0,0)"/>
<path d="" fill="#000000" transform="translate(0,0)"/>
<path d="" fill="#000000" transform="translate(0,0)"/>
<path d="" fill="#FAD63F" transform="translate(0,0)"/>
<path d="" fill="#000000" transform="translate(0,0)"/>
<path d="" fill="#000000" transform="translate(0,0)"/>
<path d="" fill="#000000" transform="translate(0,0)"/>
<path d="" fill="#000000" transform="translate(0,0)"/>
<path d="" fill="#FAD63F" transform="translate(0,0)"/>
<path d="" fill="#000000" transform="translate(0,0)"/>
<path d="" fill="#FAD63F" transform="translate(0,0)"/>
<path d="" fill="#FAD63F" transform="translate(0,0)"/>
<path d="" fill="#000000" transform="translate(0,0)"/>
<path d="" fill="#000000" transform="translate(0,0)"/>
<path d="" fill="#000000" transform="translate(0,0)"/>
<path d="" fill="#000000" transform="translate(0,0)"/>
<path d="" fill="#000000" transform="translate(0,0)"/>
<path d="" fill="#000000" transform="translate(0,0)"/>
<path d="" fill="#000000" transform="translate(0,0)"/>
<path d="" fill="#000000" transform="translate(0,0)"/>
<path d="" fill="#000000" transform="translate(0,0)"/>
<path d="" fill="#000000" transform="translate(0,0)"/>
<path d="" fill="#000000" transform="translate(0,0)"/>
<path d="" fill="#000000" transform="translate(0,0)"/>
<path d="" fill="#000000" transform="translate(0,0)"/>
<path d="" fill="#000000" transform="translate(0,0)"/>
<path d="" fill="#000000" transform="translate(0,0)"/>
<path d="" fill="#000000" transform="translate(0,0)"/>
<path d="" fill="#DBAD0E" transform="translate(0,0)"/>
<path d="" fill="#DBAD0E" transform="translate(0,0)"/>
<path d="" fill="#000000" transform="translate(0,0)"/>
<path d="" fill="#000000" transform="translate(0,0)"/>
<path d="" fill="#000000" transform="translate(0,0)"/>
<path d="" fill="#FAD63F" transform="translate(0,0)"/>
<path d="" fill="#000000" transform="translate(0,0)"/>
<path d="" fill="#000000" transform="translate(0,0)"/>
<path d="" fill="#000000" transform="translate(0,0)"/>
<path d="" fill="#000000" transform="translate(0,0)"/>
<path d="" fill="#000000" transform="translate(0,0)"/>
<path d="" fill="#000000" transform="translate(0,0)"/>
<path d="" fill="#000000" transform="translate(0,0)"/>
<path d="" fill="#000000" transform="translate(0,0)"/>
<path d="" fill="#FAD63F" transform="translate(0,0)"/>
<path d="" fill="#FAD63F" transform="translate(0,0)"/>
<path d="" fill="#DBAD0E" transform="translate(0,0)"/>
</svg>
